<svg width="152" height="38" viewBox="0 0 152 38" fill="none" xmlns="http://www.w3.org/2000/svg">
<g clip-path="url(#clip0_328_1567)">
<path d="M89.8848 24.7859C85.841 24.7859 83.072 21.77 83.072 17.5824C83.072 13.3948 85.841 10.3731 89.8848 10.3731C93.0223 10.3731 95.2449 12.1306 96.1526 14.5622H101.422C100.196 9.56262 95.8816 5.86841 89.8848 5.86841C82.9817 5.86841 77.9814 11.094 77.9814 17.5824C77.9814 24.0707 82.9817 29.2949 89.8848 29.2949C95.8816 29.2949 100.195 25.6007 101.422 20.5969H96.1526C95.2449 23.0327 93.0223 24.7859 89.8848 24.7859Z" fill="#5D6468"/>
<path d="M130.024 10.73L128.093 6.31485H121.598V0.0526123H116.599V6.31485H111.876V10.73H116.599V21.5922C116.599 26.6799 120.005 29.0702 124.367 29.0702C125.912 29.0702 127.095 28.891 128.093 28.5754V24.1602C127.366 24.429 126.368 24.6067 125.413 24.6067C122.823 24.6067 121.598 23.5701 121.598 20.776V10.73H130.024Z" fill="#5D6468"/>
<path d="M146.454 6.31482L139.502 22.2662L132.508 6.31482H127.01L129.032 10.73L136.779 27.6269L133.156 35.5571H138.642L151.999 6.31482H146.454Z" fill="#5D6468"/>
<path d="M104.468 12.3539V28.8427H109.465V5.86841L104.468 12.3539Z" fill="#5D6468"/>
<path d="M104.372 0V9.73889L111.876 0H104.372Z" fill="#5D6468"/>
<path d="M79.7392 35.924C79.7794 36.325 80.1795 36.507 80.5207 36.507C80.9007 36.507 81.2062 36.3051 81.2062 35.9695C81.2062 35.6851 81.0269 35.4875 80.6914 35.3652L80.1895 35.1832C79.6259 34.9855 79.3564 34.6769 79.3492 34.1693C79.3492 33.5806 79.821 33.2266 80.4548 33.2266C81.1918 33.2266 81.5546 33.7285 81.6005 34.2006H81.1287C81.037 33.8252 80.7401 33.6674 80.4433 33.6674C80.0963 33.6674 79.8253 33.8536 79.8253 34.1537C79.8253 34.4537 79.9945 34.6101 80.3472 34.7381L80.8118 34.9059C81.3639 35.1035 81.6822 35.4178 81.6822 35.9553C81.6822 36.5639 81.2004 36.9506 80.5265 36.9506C79.7636 36.9506 79.2832 36.4743 79.2617 35.9254H79.7378L79.7392 35.924Z" fill="#5D6468"/>
<path d="M83.8351 36.5027C84.6338 36.5027 85.2375 35.8785 85.2375 35.0865C85.2375 34.2944 84.6338 33.6716 83.8351 33.6716C83.0364 33.6716 82.4384 34.2944 82.4384 35.0865C82.4384 35.8785 83.0421 36.5027 83.8351 36.5027ZM83.8351 36.9492C82.7911 36.9492 81.958 36.133 81.958 35.0879C81.958 34.0428 82.7911 33.2266 83.8351 33.2266C84.879 33.2266 85.7121 34.0442 85.7121 35.0879C85.7121 36.1316 84.8833 36.9492 83.8351 36.9492Z" fill="#5D6468"/>
<path d="M86.2363 33.2863H86.7124V36.4415H88.4676V36.888H86.2363V33.2863Z" fill="#5D6468"/>
<path d="M90.0787 36.9492C89.2384 36.9492 88.6562 36.3861 88.6562 35.4874V33.2863H89.1323V35.4974C89.1323 36.1429 89.5109 36.5027 90.0787 36.5027C90.6466 36.5027 91.0252 36.1429 91.0252 35.4974V33.2863H91.5012V35.4874C91.5012 36.3861 90.9176 36.9492 90.0787 36.9492Z" fill="#5D6468"/>
<path d="M93.6978 37.7299C93.8814 37.7299 94.0449 37.6687 94.0449 37.5223C94.0449 37.4199 93.9631 37.3701 93.8097 37.3701C93.7323 37.3701 93.6505 37.39 93.5802 37.4213L93.4168 37.3147L93.6419 36.9393C92.6898 36.8383 91.9785 36.0676 91.9785 35.0879C91.9785 34.0385 92.7973 33.2266 93.8599 33.2266C94.7762 33.2266 95.4415 33.8195 95.5993 34.475H95.0974C94.9396 34.0229 94.4636 33.6731 93.8584 33.6731C93.0511 33.6731 92.4532 34.2916 92.4532 35.0879C92.4532 35.8842 93.0511 36.5041 93.8584 36.5041C94.4636 36.5041 94.9382 36.1543 95.0974 35.7022H95.5993C95.4458 36.3406 94.8006 36.925 93.9158 36.9506L93.7882 37.1597C93.8398 37.1397 93.9115 37.1241 93.9932 37.1241C94.2284 37.1241 94.4019 37.2663 94.4019 37.5095C94.4019 37.8081 94.1051 38.0014 93.7423 38.0014C93.6089 38.0014 93.4512 37.9915 93.3078 37.9247V37.646C93.4153 37.7057 93.5731 37.7313 93.6964 37.7313" fill="#5D6468"/>
<path d="M96.8216 32.8099C96.8732 32.5213 97.0926 32.3279 97.3636 32.3279C97.6346 32.3279 97.8597 32.5511 98.0232 32.5511C98.1365 32.5511 98.2068 32.4815 98.244 32.3279H98.581L98.561 32.4246C98.5093 32.709 98.2957 32.9009 98.0189 32.9009C97.7422 32.9009 97.5228 32.6777 97.3636 32.6777C97.246 32.6777 97.18 32.7488 97.1385 32.9009H96.8072L96.8216 32.8085V32.8099ZM97.6905 36.5027C98.4893 36.5027 99.0929 35.8785 99.0929 35.0864C99.0929 34.2944 98.4907 33.6716 97.6905 33.6716C96.8904 33.6716 96.2953 34.2944 96.2953 35.0864C96.2953 35.8785 96.899 36.5027 97.6905 36.5027ZM97.6905 36.9492C96.648 36.9492 95.8135 36.133 95.8135 35.0879C95.8135 34.0427 96.6466 33.2265 97.6905 33.2265C98.7345 33.2265 99.569 34.0442 99.569 35.0879C99.569 36.1316 98.7402 36.9492 97.6905 36.9492Z" fill="#5D6468"/>
<path d="M100.093 33.2863H102.211V33.7327H100.569V34.8234H101.904V35.2699H100.569V36.4415H102.211V36.888H100.093V33.2863Z" fill="#5D6468"/>
<path d="M102.967 35.924C103.008 36.325 103.407 36.507 103.75 36.507C104.128 36.507 104.435 36.3051 104.435 35.9695C104.435 35.6851 104.256 35.4875 103.919 35.3652L103.417 35.1832C102.854 34.9855 102.584 34.6769 102.578 34.1693C102.578 33.5806 103.049 33.2266 103.682 33.2266C104.419 33.2266 104.784 33.7285 104.828 34.2006H104.358C104.266 33.8252 103.969 33.6674 103.672 33.6674C103.325 33.6674 103.054 33.8536 103.054 34.1537C103.054 34.4537 103.224 34.6101 103.576 34.7381L104.042 34.9059C104.594 35.1035 104.911 35.4178 104.911 35.9553C104.911 36.5639 104.431 36.9506 103.756 36.9506C102.994 36.9506 102.512 36.4743 102.492 35.9254H102.968L102.967 35.924Z" fill="#5D6468"/>
<path d="M108.898 36.9492C108.059 36.9492 107.476 36.3861 107.476 35.4874V33.2863H107.952V35.4974C107.952 36.1429 108.33 36.5027 108.898 36.5027C109.466 36.5027 109.844 36.1429 109.844 35.4974V33.2863H110.321V35.4874C110.321 36.3861 109.737 36.9492 108.898 36.9492Z" fill="#5D6468"/>
<path d="M112.226 34.8291C112.64 34.8291 112.891 34.6414 112.891 34.2816C112.891 33.9219 112.64 33.7242 112.226 33.7242H111.52V34.8291H112.226ZM111.044 33.2863H112.283C112.953 33.2863 113.367 33.6872 113.367 34.2802C113.367 34.8092 113.029 35.1632 112.471 35.2443L113.869 36.888H113.269L111.873 35.2485H111.52V36.888H111.044V33.2863Z" fill="#5D6468"/>
<path d="M115.422 36.4629C115.909 36.4629 116.153 36.2083 116.153 35.8543C116.153 35.5002 115.908 35.24 115.426 35.24H114.577V36.4629H115.42H115.422ZM115.294 34.8333C115.683 34.8333 115.914 34.5944 115.914 34.2759C115.914 33.9574 115.683 33.7128 115.294 33.7128H114.579V34.8333H115.294ZM114.103 33.2863H115.296C115.97 33.2863 116.38 33.7327 116.38 34.2404C116.38 34.5959 116.221 34.8333 115.991 34.9755C116.342 35.1021 116.619 35.3566 116.619 35.8372C116.619 36.4373 116.137 36.888 115.402 36.888H114.103V33.2863Z" fill="#5D6468"/>
<path d="M119.079 35.4121L118.419 33.9247L117.76 35.4121H119.079ZM118.224 33.2863H118.617L120.229 36.888H119.733L119.268 35.8372H117.573L117.109 36.888H116.618L118.224 33.2863Z" fill="#5D6468"/>
<path d="M123.236 36.888L121.026 34.0825V36.888H120.55V33.2863H120.964L123.175 36.0917V33.2863H123.646V36.888H123.236Z" fill="#5D6468"/>
<path d="M126.431 35.4121L125.771 33.9247L125.112 35.4121H126.431ZM125.578 33.2863H125.971L127.582 36.888H127.086L126.622 35.8372H124.928L124.462 36.888H123.972L125.578 33.2863Z" fill="#5D6468"/>
<path d="M128.035 35.924C128.077 36.325 128.475 36.507 128.818 36.507C129.197 36.507 129.504 36.3051 129.504 35.9695C129.504 35.6851 129.324 35.4875 128.987 35.3652L128.485 35.1832C127.922 34.9855 127.652 34.6769 127.647 34.1693C127.647 33.5806 128.117 33.2266 128.751 33.2266C129.488 33.2266 129.852 33.7285 129.896 34.2006H129.426C129.334 33.8252 129.038 33.6674 128.741 33.6674C128.394 33.6674 128.123 33.8536 128.123 34.1537C128.123 34.4537 128.292 34.6101 128.645 34.7381L129.109 34.9059C129.661 35.1035 129.98 35.4178 129.98 35.9553C129.98 36.5639 129.498 36.9506 128.824 36.9506C128.061 36.9506 127.581 36.4743 127.561 35.9254H128.037L128.035 35.924Z" fill="#5D6468"/>
<path d="M9.92875 2.22852C6.90883 2.4219 4.49977 3.35327 2.77042 5.0013C0.912 6.88111 0.00716981 9.5629 0 13.1988V17.2243C0.00716981 20.8673 0.912 23.5378 2.77472 25.3849C4.47396 27.0372 6.88015 27.9671 9.92875 28.1591V24.5161C8.25532 24.3369 6.92317 23.761 5.96385 22.8097C4.75502 21.6068 4.21155 19.9047 4.21155 17.2869V13.095C4.21155 10.5014 4.75502 8.80785 5.96672 7.61057C6.91887 6.63512 8.25102 6.04643 9.93019 5.86727V2.22852H9.92875Z" fill="#5D6468"/>
<path d="M25.1756 23.1962H23.1738V27.8146H25.1756V23.1962Z" fill="#5D6468"/>
<path d="M11.9301 2.22534V5.86836C13.6107 6.05179 14.9443 6.63763 15.8951 7.61166C17.0795 8.78476 17.6086 10.4769 17.6086 13.0961V17.2866C17.6086 19.8958 17.0795 21.5993 15.8965 22.8094C14.9314 23.7664 13.6194 24.338 11.9316 24.5186V28.1616C15.0117 27.9739 17.3792 27.0411 19.0469 25.3874C20.9397 23.5474 21.8618 20.8627 21.8618 17.1813V13.2454C21.8618 9.57394 20.9412 6.87794 19.0498 5.0024C17.3849 3.35436 14.9917 2.41446 11.9287 2.22819" fill="#5D6468"/>
<path d="M48.1191 2.90356L39.1182 27.8146H43.357L48.1191 14.7498V2.90356Z" fill="#5D6468"/>
<path d="M38.221 25.3205L38.4361 24.8783L40.3376 19.6157L33.7801 2.77417H27.4219V27.8146H31.784V17.8852C31.784 14.818 31.7467 11.4807 31.6349 8.15765H31.784C32.5985 10.7797 37.1929 22.6615 38.2225 25.3191" fill="#5D6468"/>
<path d="M50.1201 2.77417V7.84766H50.1359L50.1201 8.35387V27.8146H54.346V2.77417H50.1201Z" fill="#5D6468"/>
<path d="M2.81073 32.0918H1.86719V36.8525H2.81073V32.0918Z" fill="#5D6468"/>
<path d="M3.91797 32.0918H4.7382L6.09472 34.091C6.3428 34.4508 6.63963 34.9144 6.84469 35.2812H6.8662C6.85186 34.9485 6.84469 34.4721 6.84469 34.1465V32.0918H7.73374V36.8525H6.91352L5.53691 34.8191C5.28167 34.4451 5.02069 34.0228 4.81276 33.6488H4.79269C4.79986 33.9958 4.80703 34.4522 4.80703 34.7835V36.8525H3.91797V32.0918Z" fill="#5D6468"/>
<path d="M9.24485 36.416C8.90214 36.0975 8.68848 35.5927 8.68848 34.8675V34.0783C8.68848 33.3517 8.90214 32.8469 9.24485 32.5298C9.59617 32.2028 10.1124 32.0378 10.719 32.0378C11.1463 32.0378 11.5177 32.1203 11.8346 32.2796C12.1658 32.4445 12.4268 32.6934 12.6333 33.0204L11.9378 33.4911C11.7787 33.2764 11.6009 33.1185 11.3929 33.0062C11.2079 32.8953 10.9799 32.8469 10.739 32.8469C10.3877 32.8469 10.1052 32.9507 9.92599 33.1313C9.72667 33.3247 9.63059 33.6219 9.63059 34.0243V34.9173C9.63059 35.3254 9.72667 35.6226 9.92599 35.8174C10.1052 35.9965 10.3877 36.1018 10.7319 36.1018C10.9814 36.1018 11.2065 36.052 11.3944 35.9425C11.5937 35.8387 11.7801 35.6723 11.9393 35.4576L12.6347 35.9283C12.4297 36.2539 12.1658 36.5027 11.836 36.6691C11.5191 36.8284 11.1477 36.9108 10.7204 36.9108C10.1138 36.9108 9.59761 36.7374 9.24629 36.4203" fill="#5D6468"/>
<path d="M20.9829 36.8525C20.7491 36.3335 20.438 35.6893 20.1627 35.1362H19.2951V36.8525H18.3516V32.0918H20.21C21.2854 32.0918 21.9049 32.4999 21.9049 33.518V33.663C21.9049 34.3541 21.5823 34.7835 21.0431 34.9911L22.001 36.851H20.9814M19.2951 34.3897H20.1082C20.6387 34.3897 20.9614 34.2162 20.9614 33.6702V33.5521C20.9614 33.0118 20.6588 32.8383 20.1082 32.8383H19.2951V34.3882" fill="#5D6468"/>
<path d="M15.3032 32.0364C14.6493 32.0364 14.1044 32.2013 13.733 32.5696C13.396 32.9023 13.2168 33.4 13.2168 34.1067V34.8404C13.2168 35.5457 13.396 36.0448 13.733 36.3761C14.1001 36.7459 14.635 36.9051 15.2774 36.908H15.3276C15.9772 36.9037 16.512 36.7444 16.8791 36.3761C17.2161 36.0434 17.3954 35.5457 17.3954 34.8404V34.1053C17.3954 33.4 17.2161 32.9009 16.8791 32.5682C16.5077 32.1956 15.9628 32.0364 15.3032 32.0364ZM15.3032 32.8469C15.6904 32.8469 15.9786 32.9507 16.1708 33.1441C16.3629 33.3446 16.4518 33.6204 16.4518 34.0498V34.8945C16.4518 35.3239 16.3615 35.5998 16.1708 35.7931C15.9772 35.9936 15.6875 36.0989 15.3032 36.0989C14.9189 36.0989 14.635 35.9951 14.4414 35.7931C14.2478 35.5983 14.1589 35.3225 14.1589 34.8945V34.0498C14.1589 33.6204 14.2492 33.3446 14.4414 33.1441C14.6336 32.9493 14.9246 32.8469 15.3032 32.8469Z" fill="#5D6468"/>
<path d="M22.8799 32.0918H24.6365C25.8138 32.0918 26.4548 32.5269 26.4548 33.5649V33.7725C26.4548 34.7963 25.8138 35.2954 24.6494 35.2954H23.8234V36.8525H22.8799V32.0918ZM24.5677 34.5489C25.1943 34.5489 25.5184 34.3413 25.5184 33.7612V33.609C25.5184 33.0345 25.2015 32.8412 24.5748 32.8412H23.8249V34.5503H24.5677" fill="#5D6468"/>
<path d="M29.2554 32.0363C28.6015 32.0363 28.0566 32.2013 27.6852 32.5696C27.3482 32.9023 27.1689 33.4 27.1689 34.1067V34.8404C27.1689 35.5457 27.3482 36.0448 27.6852 36.3761C28.0523 36.7458 28.5871 36.9051 29.2295 36.9079H29.2797C29.9293 36.9036 30.4642 36.7444 30.8313 36.3761C31.1683 36.0434 31.3475 35.5457 31.3475 34.8404V34.1053C31.3475 33.4 31.1683 32.9009 30.8313 32.5681C30.4599 32.1942 29.915 32.0349 29.2539 32.0349H29.2554M29.2554 32.8468C29.6425 32.8468 29.9308 32.9506 30.1229 33.144C30.3151 33.3445 30.404 33.6204 30.404 34.0498V34.8944C30.404 35.3239 30.3136 35.5997 30.1229 35.7931C29.9293 35.9936 29.6397 36.0988 29.2554 36.0988C28.8711 36.0988 28.5871 35.995 28.3935 35.7931C28.2 35.5983 28.1111 35.3224 28.1111 34.8944V34.0498C28.1111 33.6204 28.2014 33.3445 28.3935 33.144C28.5857 32.9492 28.8768 32.8468 29.2554 32.8468Z" fill="#5D6468"/>
<path d="M34.9341 36.8525C34.7003 36.3335 34.3891 35.6893 34.1153 35.1362H33.2463V36.8525H32.3027V32.0918H34.1611C35.2366 32.0918 35.8561 32.4999 35.8561 33.518V33.663C35.8561 34.3541 35.5306 34.7835 34.9943 34.9911L35.9522 36.851H34.9326M33.2477 34.3897H34.0608C34.5913 34.3897 34.914 34.2162 34.914 33.6702V33.5521C34.914 33.0118 34.6114 32.8383 34.0608 32.8383H33.2477V34.3882" fill="#5D6468"/>
<path d="M39.4299 35.8216H37.7421C37.6604 36.1543 37.5629 36.4999 37.4725 36.8539H36.5146C36.9549 35.2613 37.4238 33.6574 37.8984 32.0933H39.2765C39.7511 33.6574 40.2128 35.2557 40.6674 36.8539H39.7023L39.4285 35.8216M39.222 35.0751L39.0571 34.4722L38.6168 32.8881H38.5408C38.4089 33.3787 38.2512 33.9333 38.1063 34.4807L37.9414 35.0751H39.2234" fill="#5D6468"/>
<path d="M41.4712 32.0919H43.2421C43.9304 32.0919 44.4753 32.2355 44.8252 32.5483C45.1823 32.8668 45.3558 33.3574 45.3558 34.0087V34.9073C45.3558 35.5444 45.1823 36.0477 44.8252 36.3733C44.4796 36.6919 43.9433 36.8497 43.2335 36.8497H41.4697V32.0905M43.2134 36.1046C43.6207 36.1046 43.9232 36.0292 44.1226 35.8287C44.3219 35.6354 44.4122 35.324 44.4122 34.9429V33.9731C44.4122 33.5849 44.3147 33.282 44.1226 33.0943C43.9232 32.9067 43.6063 32.8384 43.2134 32.8384H42.4133V36.1046H43.2134Z" fill="#5D6468"/>
<path d="M48.2602 32.0364C47.6064 32.0364 47.0615 32.2013 46.6901 32.5696C46.3531 32.9023 46.1738 33.4 46.1738 34.1067V34.8404C46.1738 35.5457 46.3531 36.0448 46.6901 36.3761C47.0571 36.7459 47.592 36.9051 48.2344 36.908H48.2846C48.9342 36.9037 49.4691 36.7444 49.8376 36.3761C50.1746 36.0434 50.3538 35.5457 50.3538 34.8404V34.1053C50.3538 33.4 50.1746 32.9009 49.8376 32.5682C49.4648 32.1956 48.9199 32.0364 48.2602 32.0364ZM48.2602 32.8469C48.6474 32.8469 48.9342 32.9507 49.1278 33.1441C49.3199 33.3446 49.4088 33.6204 49.4088 34.0498V34.8945C49.4088 35.3239 49.3185 35.5998 49.1278 35.7931C48.9342 35.9936 48.6445 36.0989 48.2602 36.0989C47.8759 36.0989 47.592 35.9951 47.3984 35.7931C47.2048 35.5983 47.1159 35.3225 47.1159 34.8945V34.0498C47.1159 33.6204 47.2063 33.3446 47.3984 33.1441C47.5906 32.9493 47.8817 32.8469 48.2602 32.8469Z" fill="#5D6468"/>
<path d="M53.9389 36.8525C53.7052 36.3335 53.394 35.6893 53.1187 35.1362H52.2512V36.8525H51.3076V32.0918H53.166C54.2415 32.0918 54.861 32.4999 54.861 33.518V33.663C54.861 34.3541 54.5383 34.7835 53.9992 34.9911L54.9571 36.851H53.9375M52.2512 34.3897H53.0642C53.5948 34.3897 53.9174 34.2162 53.9174 33.6702V33.5521C53.9174 33.0118 53.6149 32.8383 53.0642 32.8383H52.2512V34.3882" fill="#5D6468"/>
<path d="M58.7626 23.1962H56.7607V27.8132H58.7626V23.1962Z" fill="#5D6468"/>
<path d="M58.4324 35.8216H56.7446C56.6629 36.1543 56.5653 36.4999 56.4764 36.8539H55.5186C55.9588 35.2613 56.4277 33.6574 56.9023 32.0933H58.2804C58.755 33.6574 59.2167 35.2557 59.6713 36.8539H58.7077L58.4309 35.8216M58.2273 35.0751L58.0624 34.4722L57.6222 32.8881H57.5462C57.4143 33.3787 57.2565 33.9333 57.1131 34.4807L56.9482 35.0751H58.2287" fill="#5D6468"/>
</g>
<defs>
<clipPath id="clip0_328_1567">
<rect width="152" height="38" fill="white"/>
</clipPath>
</defs>
</svg>
